<?xml version="1.0" encoding="UTF-8"?>
<svg version="1.1" xmlns="http://www.w3.org/2000/svg" width="3840" height="2160">
<path d="M0 0 C137.28 0 274.56 0 416 0 C416 81.74365008 416 81.74365008 415.59472656 106.15386963 C415.54915063 109.02990099 415.51144453 111.90602295 415.47328281 114.78216076 C415.43470112 117.61906035 415.3916209 120.45587695 415.34705925 123.29268837 C415.31745701 125.22440097 415.2915418 127.156169 415.26576233 129.0879364 C415.24581711 130.22318253 415.22587189 131.35842865 415.20532227 132.52807617 C415.18200584 134.01340096 415.18200584 134.01340096 415.15821838 135.5287323 C415 138 415 138 414 141 C377.12983348 141.57640939 340.2608974 142.06287131 303.38671875 142.28125 C301.78028488 142.29089288 300.17385101 142.30053644 298.56741714 142.31018066 C285.6252347 142.38733872 272.68301689 142.45799719 259.74078369 142.52606201 C250.73376145 142.57348874 241.72675775 142.62283606 232.71977645 142.67754889 C228.90627253 142.70055564 225.09277513 142.72215508 221.27924156 142.73963928 C220.55643098 142.74307988 219.8336204 142.74652047 219.08890647 142.75006533 C217.15510411 142.75910837 215.221299 142.76755604 213.28749371 142.77594757 C194.49427947 142.91467406 175.80607456 143.46268358 157 144 C157 167.43 157 190.86 157 215 C162.28 213.02 167.56 211.04 173 209 C209.53511763 197.91631263 259.29434538 196.7848673 296 207 C296.94359375 207.25700684 297.8871875 207.51401367 298.859375 207.77880859 C317.74807414 213.09125523 333.65242165 221.91012047 349 234 C350.03382813 234.80953125 351.06765625 235.6190625 352.1328125 236.453125 C357.41601055 240.68544169 362.32838291 245.10533488 367 250 C367.804375 250.804375 368.60875 251.60875 369.4375 252.4375 C370.283125 253.283125 371.12875 254.12875 372 255 C372.53753906 255.49113281 373.07507812 255.98226562 373.62890625 256.48828125 C405.52253924 286.51756826 421.10026505 332.31684246 425.62792969 374.73095703 C425.98523369 377.87026192 426.40580641 380.99325449 426.8515625 384.12109375 C430.87832983 413.18917594 429.30947103 441.67581972 425.72428894 470.67970276 C425.05114343 476.24486371 424.63703215 481.80251129 424.30957031 487.39916992 C421.8342129 528.98582932 398.47917953 565.9945088 371 596 C370.08771979 597.01618985 369.17629227 598.0331457 368.265625 599.05078125 C363.13969046 604.75534998 357.95253966 610.14608343 352 615 C350.91126664 615.92425341 349.82274458 616.84875574 348.734375 617.7734375 C340.05336091 625.04204596 331.09211423 630.88073154 321 636 C320.03449219 636.49113281 319.06898438 636.98226562 318.07421875 637.48828125 C286.09149687 652.79260594 250.19713301 653.1904995 215.48461914 653.18530273 C212.63950163 653.18522202 209.79454701 653.19209118 206.94946289 653.20581055 C158.98081702 653.43299425 158.98081702 653.43299425 135.6875 648.6875 C134.57342773 648.4694873 133.45935547 648.25147461 132.31152344 648.02685547 C89.2098682 639.27949591 50.65756491 611.00339474 26 575 C25.56349121 574.36513672 25.12698242 573.73027344 24.67724609 573.07617188 C10.61782076 552.3301413 1.44726116 529.59389003 -3 505 C-3.51263928 502.62321786 -4.03338302 500.24816826 -4.5625 497.875 C-7.71950408 483.10354407 -8.24971082 469.47378076 -7.5625 454.4375 C-7.50388794 453.13317017 -7.50388794 453.13317017 -7.4440918 451.80249023 C-7.38088745 450.56801147 -7.38088745 450.56801147 -7.31640625 449.30859375 C-7.27974854 448.57439209 -7.24309082 447.84019043 -7.20532227 447.08374023 C-6.99734608 444.97306633 -6.53388067 443.04905363 -6 441 C11.25639004 440.95302998 28.51275979 440.9178898 45.76919937 440.89637566 C53.78381757 440.88611544 61.79839578 440.87215722 69.81298828 440.84912109 C76.80825288 440.82902459 83.80348848 440.81624552 90.79878116 440.81182301 C94.49387378 440.80924278 98.18888354 440.8032916 101.88394928 440.78853989 C128.36894935 440.68732752 128.36894935 440.68732752 140.59277344 441.82470703 C141.3760413 441.89403883 142.15930916 441.96337063 142.96631241 442.03480339 C147.52076408 442.53962914 151.11645878 443.54081524 155 446 C156.109375 448.94921875 156.109375 448.94921875 156.75 452.6875 C158.30841782 460.37581597 160.9660511 467.40154718 164 474.625 C164.42764648 475.65584717 164.85529297 476.68669434 165.29589844 477.7487793 C172.04285347 493.61088618 182.90283622 500.28212784 198.37109375 507.03515625 C206.12022322 510.00496523 213.90656021 510.13037469 221.640625 507.05859375 C223.52033392 506.20644159 225.39026324 505.33240118 227.25 504.4375 C228.19101563 504.01919922 229.13203125 503.60089844 230.1015625 503.16992188 C239.21322468 498.92674586 244.90725025 493.51014695 249.1875 484.4375 C249.52354248 483.7377002 249.85958496 483.03790039 250.20581055 482.31689453 C263.44903718 453.90041066 265.11461508 412.0840323 255.875 382.1875 C250.79494146 368.5657501 245.46656403 354.72312104 231.85546875 348.04296875 C217.13339409 342.66568567 198.40245235 342.76941406 184 349 C171.21978663 355.24920939 164.7335228 365.63309114 158.5625 378.0625 C157.52342749 380.11653955 156.48313228 382.16996119 155.44140625 384.22265625 C154.99482666 385.11734619 154.54824707 386.01203613 154.08813477 386.93383789 C153 389 153 389 152 390 C150.64540774 390.09750401 149.28578535 390.126316 147.9276886 390.12698364 C147.04937881 390.12980347 146.17106903 390.13262329 145.2661438 390.13552856 C144.2944223 390.13350433 143.32270081 390.1314801 142.3215332 390.12939453 C140.79424339 390.13202301 140.79424339 390.13202301 139.23609924 390.13470459 C135.84097629 390.13913404 132.44590482 390.13617676 129.05078125 390.1328125 C126.68352753 390.13348632 124.31627387 390.134457 121.94902039 390.13571167 C116.96283313 390.13719099 111.97666371 390.13503063 106.99047852 390.13037109 C100.66011498 390.12473865 94.32979444 390.12790949 87.99943256 390.13394356 C83.09429109 390.13759892 78.18915938 390.13638693 73.28401756 390.13381577 C70.95489687 390.13315674 68.62577524 390.13393832 66.29665565 390.13629532 C54.81010846 390.14534944 43.34461202 390.06026049 31.86791992 389.55029297 C30.98143674 389.51104769 30.09495356 389.47180241 29.18160725 389.43136787 C10.5725186 388.50630384 10.5725186 388.50630384 5 385 C1.60590381 377.6758977 1.83445064 368.70416757 1.47227478 360.75158691 C1.43092909 359.85528895 1.3895834 358.95899098 1.3469848 358.03553247 C0.82991376 346.03008469 0.64945736 334.01650489 0.47341435 322.00206482 C0.44300795 319.93410477 0.41153337 317.86616282 0.37993729 315.79822063 C-0.08749862 284.8565637 -0.13381489 253.91740128 -0.10339781 222.97283596 C-0.09592756 215.18989737 -0.09538205 207.40696632 -0.09460449 199.62402344 C-0.0894351 179.2493468 -0.07547472 158.87467316 -0.0625 138.5 C-0.041875 92.795 -0.02125 47.09 0 0 Z " fill="#000000" transform="translate(1005,753)"/>
<path d="M0 0 C149.82 0 299.64 0 454 0 C454 25.27405042 454 25.27405042 453.81640625 36.15576172 C453.79689911 37.39767776 453.77739197 38.63959381 453.7572937 39.91914368 C453.70483206 43.23800486 453.65086317 46.55683684 453.59614182 49.87566137 C453.5388076 53.37624448 453.48351423 56.8768599 453.42797852 60.37747192 C453.32313081 66.96767381 453.21652193 73.55784589 453.10923481 80.14800847 C452.98691409 87.66709567 452.86662597 95.18621499 452.74648476 102.70533729 C452.4998731 118.13692761 452.25078635 133.56847692 452 149 C422.91165961 149.99204235 393.82423983 150.30690118 364.72114182 150.53242874 C360.83468489 150.56281521 356.94824147 150.59460903 353.0617981 150.62667847 C293.04118655 151.11683037 233.02218326 151.09406228 173 151 C173 183.67 173 216.34 173 250 C185.96861328 250.09087891 185.96861328 250.09087891 199.19921875 250.18359375 C204.8821627 250.22387408 210.56510609 250.26421041 216.24804688 250.30493164 C216.97500039 250.31014017 217.70195391 250.3153487 218.45093632 250.32071507 C223.86312512 250.35951774 229.27531282 250.39847232 234.6875 250.4375 C235.45263664 250.44301424 236.21777328 250.44852847 237.00609589 250.4542098 C294.67205458 250.87002941 352.33550502 251.39932818 410 252 C410 303.81 410 355.62 410 409 C372.43416671 409.63670904 334.87963656 410.22093151 297.31134033 410.53222656 C293.75588372 410.56244998 290.20045143 410.59468963 286.64501953 410.62768555 C248.76055163 410.97762449 210.88838923 411 173 411 C173 490.86 173 570.72 173 653 C115.91 653 58.82 653 0 653 C0 437.51 0 222.02 0 0 Z " fill="#000000" transform="translate(33,753)"/>
<path d="M0 0 C5.23457943 0.01142966 10.46895439 0.00478447 15.7035265 -0.00714493 C19.81080096 -0.01445174 23.91802875 -0.0120363 28.02530479 -0.00688934 C29.95333571 -0.00557904 31.88137122 -0.0071056 33.80939674 -0.01184845 C86.6546613 -0.113476 128.61073325 14.77725131 166.45825195 52.26074219 C169.60533353 55.48469904 172.57533483 58.79915635 175.45825195 62.26074219 C176.07531006 63.00130859 176.07531006 63.00130859 176.70483398 63.75683594 C199.08032127 90.84251644 216.97572245 121.87110583 219.63696289 157.46337891 C220.03508187 162.16256932 220.99922075 165.96099433 222.76147461 170.32324219 C228.38677473 185.96528206 225.70615401 207.69668948 225.14575195 224.01074219 C225.1111084 225.10942627 225.07646484 226.20811035 225.04077148 227.34008789 C224.70251851 235.34602772 223.31063124 242.6019369 221.02075195 250.26074219 C219.9235684 254.17692706 219.12461195 258.06023864 218.48535156 262.07666016 C213.18103278 295.21435261 197.14470946 325.92107682 183.45825195 356.26074219 C182.96357422 357.35950684 182.46889648 358.45827148 181.95922852 359.59033203 C175.55869765 373.77763 168.88636889 387.83501929 162.20471191 401.89135742 C157.3027015 412.20407267 152.42674807 422.52337154 147.80175781 432.96435547 C145.28148021 438.61070553 142.54331599 444.13851293 139.76554871 449.66133118 C135.31688651 458.51168706 130.98499691 467.41887405 126.64575195 476.32324219 C126.20726929 477.22227264 125.76878662 478.1213031 125.3170166 479.0475769 C119.8013052 490.35744793 114.31870624 501.68136479 108.91381836 513.04467773 C106.50373672 518.1035438 104.04472198 523.13278124 101.52075195 528.13574219 C98.33459124 534.45151411 95.25846019 540.81577349 92.20825195 547.19824219 C86.76611662 558.58089319 81.24518751 569.92398406 75.70825195 581.26074219 C69.69882443 593.56788122 63.68984355 605.87518807 57.71008301 618.19677734 C57.05917188 619.53777959 56.40790608 620.87860976 55.75622559 622.21923828 C52.20159269 629.53275546 48.6917528 636.86549879 45.23461914 644.22558594 C44.86920013 645.00285034 44.50378113 645.78011475 44.12728882 646.58093262 C43.23731363 648.47406324 42.34774044 650.36738284 41.45825195 652.26074219 C9.10884183 653.30705267 -23.23091678 653.41802199 -55.59449017 653.3893106 C-61.10196644 653.38494432 -66.60942004 653.38809409 -72.1168949 653.39293969 C-78.17657534 653.39805109 -84.23624153 653.39747935 -90.29592323 653.39455795 C-92.83261431 653.39389714 -95.36930625 653.39468705 -97.90599632 653.39703751 C-130.88248961 653.42097138 -130.88248961 653.42097138 -138.54174805 651.26074219 C-137.98491712 645.83593239 -136.62900203 641.39752041 -134.4831543 636.40136719 C-134.17318008 635.66533264 -133.86320587 634.9292981 -133.5438385 634.17095947 C-130.07378701 626.01562124 -126.29719996 618.00748404 -122.47924805 610.01074219 C-121.73344854 608.44047909 -120.98792944 606.87008278 -120.24267578 605.29956055 C-114.44554751 593.09735756 -108.57955511 580.92846477 -102.6862793 568.77246094 C-100.26899568 563.78073738 -97.88888448 558.77283382 -95.52612305 553.75512695 C-91.6650381 545.5617764 -87.61100315 537.51438308 -83.34350586 529.52563477 C-79.76130619 522.77759364 -76.47217233 515.910575 -73.20996094 509.00341797 C-68.78928817 499.68720588 -64.17020478 490.47479957 -59.54174805 481.26074219 C-53.15224523 468.53301034 -46.86436841 455.76723708 -40.78295898 442.88867188 C-39.02001689 439.15611705 -37.24837248 435.42772263 -35.4753418 431.69995117 C-34.64070332 429.94487463 -33.80724578 428.18923566 -32.9753418 426.43286133 C-30.23918251 420.67046785 -27.41346329 414.95673741 -24.54174805 409.26074219 C-25.62941144 407.94907193 -25.62941144 407.94907193 -28.2800293 408.12792969 C-34.02226455 408.14048102 -39.69831178 408.21013622 -45.41674805 408.76074219 C-84.28985481 412.3275565 -119.42037047 397.75226527 -149.29174805 373.76074219 C-155.21494781 368.78027392 -160.90632168 363.56192948 -166.54174805 358.26074219 C-167.30100586 357.56722656 -168.06026367 356.87371094 -168.8425293 356.15917969 C-180.58657546 345.0377612 -189.70698344 331.32092956 -197.54174805 317.26074219 C-197.91251465 316.61202148 -198.28328125 315.96330078 -198.6652832 315.29492188 C-210.39636072 294.71180418 -217.06011432 272.79631339 -221.79174805 249.69824219 C-221.95513672 248.901521 -222.11852539 248.1047998 -222.28686523 247.28393555 C-224.44885902 236.24001953 -224.72814402 225.3686962 -224.72705078 214.14990234 C-224.72922516 211.66193201 -224.74740159 209.17441504 -224.76635742 206.68652344 C-224.80320353 196.35170435 -223.99772577 186.4896854 -222.54174805 176.26074219 C-222.24729261 173.70305645 -221.96079729 171.14444141 -221.68237305 168.58496094 C-220.01238769 153.96764409 -218.03690657 140.00354197 -212.54174805 126.26074219 C-212.26959473 125.57560547 -211.99744141 124.89046875 -211.71704102 124.18457031 C-209.80911541 119.46995344 -207.72022885 114.85566978 -205.54174805 110.26074219 C-205.2351123 109.60509277 -204.92847656 108.94944336 -204.61254883 108.27392578 C-185.60247149 67.87874331 -153.25955248 28.54036865 -110.4284668 12.63183594 C-74.69930387 -0.13694688 -37.47237681 -0.08259608 0 0 Z M-34.54174805 154.26074219 C-35.87206055 155.15792969 -35.87206055 155.15792969 -37.22924805 156.07324219 C-49.87499997 168.03543996 -54.18250976 185.92868803 -54.7565918 202.72558594 C-55.17989338 221.81320711 -52.73860251 237.58604744 -39.54174805 252.26074219 C-34.17098431 257.79781373 -28.23142821 262.33886499 -21.85424805 266.63574219 C-20.92805664 267.26113892 -20.92805664 267.26113892 -19.9831543 267.89916992 C-12.58550764 272.74498414 -4.91556753 276.51291056 4.1027832 274.74121094 C23.78472699 268.84470521 40.6363805 257.24322358 50.66137695 239.08105469 C58.53122349 222.10802746 58.28608057 199.33143408 52.4777832 181.87792969 C45.87099684 164.91798002 36.39346155 153.12588221 19.80200195 144.95214844 C1.38915345 137.47839392 -19.4683833 142.15503794 -34.54174805 154.26074219 Z " fill="#000000" transform="translate(739.541748046875,752.7392578125)"/>
<path d="M0 0 C29.34237883 -0.04575096 58.68475511 -0.08108397 88.02716239 -0.10213066 C91.50134399 -0.10463169 94.97552553 -0.10722037 98.44970703 -0.10986328 C99.14127406 -0.1103879 99.8328411 -0.11091252 100.54536471 -0.11145304 C111.70278892 -0.12012543 122.86019226 -0.13587771 134.01760414 -0.15430559 C145.48958645 -0.17309321 156.96155416 -0.1839859 168.43355155 -0.18817699 C174.86730476 -0.19077237 181.30101082 -0.19682387 187.73474884 -0.21146011 C193.80528659 -0.22515664 199.87575831 -0.22919854 205.94631004 -0.22621536 C208.16001686 -0.22676018 210.37372617 -0.23066502 212.58741951 -0.23841095 C223.19173603 -0.27365865 233.72367423 -0.12496725 244.29119873 0.82669067 C245.12922004 0.89590284 245.96724135 0.96511501 246.83065724 1.03642452 C250.99325373 1.46655528 253.2513648 1.82691778 256 5 C251.37439059 9.32313734 247.15042085 11.37479126 241.1875 13.375 C239.48609667 13.97536948 237.78559107 14.57828842 236.0859375 15.18359375 C235.23354492 15.48507324 234.38115234 15.78655273 233.50292969 16.09716797 C203.78460956 26.81686635 176.55978094 42.94307111 153 64 C152.47535156 64.46825195 151.95070313 64.93650391 151.41015625 65.41894531 C104.3812392 107.58974074 87.52020963 161.09367558 84.11879444 222.72187328 C83.24805422 239.42010036 82.75865257 256.12679522 82.44921875 272.84375 C82.42840429 273.93916611 82.40758984 275.03458221 82.38614464 276.16319275 C81.91449933 301.4714966 81.81250948 326.77863801 81.81469727 352.09082031 C81.8147796 357.07327825 81.80763983 362.05564629 81.79418945 367.03808594 C81.59769372 441.09641608 87.96080566 516.2892659 140 574 C141.15207253 575.12093543 142.33445299 576.21285589 143.5625 577.25 C144.24570313 577.82878906 144.92890625 578.40757812 145.6328125 579.00390625 C146.41398437 579.66261719 147.19515625 580.32132813 148 581 C148.92554687 581.81339844 149.85109375 582.62679687 150.8046875 583.46484375 C176.81506752 606.19901211 207.19134253 622.92201821 239.97827148 633.56494141 C259.66076853 639.99115279 259.66076853 639.99115279 265 648 C265 648.66 265 649.32 265 650 C244.5689131 660.21554345 204.13332212 653.25398369 182.00923848 653.20278788 C175.58985789 653.1901149 169.17047454 653.18909718 162.75108337 653.18673706 C152.01413323 653.18126678 141.27721812 653.16885403 130.5402832 653.15087891 C119.49959452 653.13241491 108.45891394 653.11833353 97.41821289 653.10986328 C96.72646011 653.10932729 96.03470733 653.10879129 95.32199234 653.10823905 C89.30121498 653.10361103 83.28043739 653.09930654 77.25965977 653.09503365 C51.50641225 653.07634053 25.75324271 653.03646333 0 653 C0 609.11 0 565.22 0 520 C-9.714375 520.020625 -19.42875 520.04125 -29.4375 520.0625 C-62.67488339 520.09552714 -95.90399697 519.77473097 -129.13842773 519.35571289 C-130.06466414 519.34414374 -130.99090055 519.3325746 -131.94520473 519.32065487 C-136.28113996 519.26646798 -140.61704973 519.21112598 -144.95292664 519.15245056 C-153.8683313 519.0357508 -162.78074945 518.99097998 -171.69690514 519.00358582 C-179.59648144 519.0103899 -187.49227343 518.91033422 -195.390625 518.78125 C-196.84177444 518.75869474 -198.29292603 518.73627765 -199.74407959 518.71398926 C-203.48553671 518.65616683 -207.22696241 518.59652289 -210.96838379 518.53643799 C-214.81744628 518.47496749 -218.66653681 518.41530461 -222.515625 518.35546875 C-230.01044447 518.23870232 -237.50523157 518.12000273 -245 518 C-247.41012125 510.76963625 -246.85365509 504.07754965 -243.59448242 497.25341797 C-241.80990272 493.78896066 -239.91644832 490.39275154 -238 487 C-237.29324351 485.69787623 -236.58877552 484.39450745 -235.88671875 483.08984375 C-230.56481727 473.30354015 -224.63380182 463.9143093 -218.62548828 454.5390625 C-216.97234377 451.95680012 -215.32687902 449.36979635 -213.68359375 446.78125 C-210.75887352 442.17472132 -207.82824275 437.57199861 -204.89453125 432.97119141 C-203.58936298 430.92429736 -202.2847055 428.87707756 -200.98046875 426.82958984 C-187.23492721 405.25672604 -187.23492721 405.25672604 -180.76293945 395.62744141 C-177.27206071 390.4291062 -173.85165283 385.18648225 -170.4375 379.9375 C-155.58556768 357.12474592 -140.62234048 334.38442522 -125.5 311.75 C-119.2690652 302.42373029 -113.06375629 293.08307116 -106.9375 283.6875 C-89.05852838 256.27787598 -71.05502333 228.95589318 -52.70993042 201.85562134 C-41.9194806 185.91081553 -31.28657848 169.86591445 -20.71484375 153.77539062 C-20.1384465 152.89812317 -19.56204926 152.02085571 -18.96818542 151.11700439 C-17.9161902 149.51517981 -16.86477063 147.91297687 -15.81416321 146.3102417 C-15.32675156 145.56752014 -14.8393399 144.82479858 -14.3371582 144.05957031 C-13.58408386 142.86280418 -13.58408386 142.86280418 -12.8157959 141.64186096 C-11 139 -11 139 -8.42443848 136.07090759 C1.29027698 124.52107007 0.40781046 111.92758139 0.21586847 97.43988347 C0.18107724 94.00454519 0.20365748 90.56954919 0.21969604 87.13414001 C0.24146975 80.65303363 0.21295751 74.17320235 0.165573 67.6922726 C0.11406189 60.30383472 0.11983239 52.91577102 0.12999368 45.52720082 C0.14960355 30.35104444 0.09864723 15.17588398 0 0 Z " fill="#BA4444" transform="translate(2049,753)"/>
<path d="M0 0 C0 215.49 0 430.98 0 653 C-279 653 -279 653 -314 651 C-314.33 649.68 -314.66 648.36 -315 647 C-312.3202298 642.54756527 -308.75331339 640.38719365 -304.1875 638.1875 C-303.49881836 637.848396 -302.81013672 637.50929199 -302.10058594 637.15991211 C-295.19511302 633.88185417 -288.02140355 631.4972048 -280.78515625 629.06665039 C-227.57289186 610.99811094 -184.14009828 573.20913547 -158.8125 523.0625 C-125.48033823 455.12007682 -131.95160734 371.21093449 -131.87751007 297.22132111 C-131.87505174 295.10699638 -131.87110036 292.9926788 -131.86688232 290.87835693 C-131.82551888 266.6995624 -131.79469025 242.39026595 -134.25 218.3125 C-134.37858398 217.03616699 -134.50716797 215.75983398 -134.63964844 214.44482422 C-140.11991597 163.47074228 -157.12369832 115.93687057 -191.62109375 77.54638672 C-193.38975595 75.56290472 -195.09790407 73.53023746 -196.8125 71.5 C-199.58544053 68.34061055 -202.59029375 65.60357118 -205.80078125 62.89453125 C-207.35399987 61.556501 -208.86934917 60.17390203 -210.35546875 58.76171875 C-222.16619207 47.55850616 -235.66367064 38.64496481 -250 31 C-251.11246094 30.37996094 -252.22492187 29.75992188 -253.37109375 29.12109375 C-263.58435807 23.59908288 -274.41699241 19.75800988 -285.35351562 15.9440918 C-292.28953007 13.4941038 -298.74392604 10.89497482 -305 7 C-304.12963867 5.04956055 -304.12963867 5.04956055 -303 3 C-208.65439765 -33.0680928 -101.00495037 0 0 0 Z " fill="#BA4444" transform="translate(2729,753)"/>
<path d="M0 0 C50.16 0 100.32 0 152 0 C152 215.49 152 430.98 152 653 C101.84 653 51.68 653 0 653 C0 437.51 0 222.02 0 0 Z " fill="#BA4444" transform="translate(3218,753)"/>
<path d="M0 0 C28.00238055 23.70342354 33.62611664 60.12363769 36.5625 94.875 C38.00955311 112.40144837 38.65537994 129.92207025 39 147.5 C39.02084656 148.53212616 39.04169312 149.56425232 39.06317139 150.62765503 C39.40398447 167.6704452 39.66219537 184.70369315 39.4375 201.75 C39.42889954 202.4462146 39.42029907 203.1424292 39.41143799 203.85974121 C37.9181555 320.91883585 37.9181555 320.91883585 9.4375 353.75 C8.82519531 354.47316406 8.21289062 355.19632813 7.58203125 355.94140625 C-5.6503327 370.35875802 -26.71091056 379.18773515 -46.05859375 380.65625 C-47.29802734 380.70265625 -47.29802734 380.70265625 -48.5625 380.75 C-49.79097656 380.8015625 -51.01945312 380.853125 -52.28515625 380.90625 C-77.72938619 381.6216927 -104.23069663 373.8713061 -123.5625 356.75 C-123.5625 356.09 -123.5625 355.43 -123.5625 354.75 C-124.8825 354.09 -126.2025 353.43 -127.5625 352.75 C-127.5625 352.09 -127.5625 351.43 -127.5625 350.75 C-128.2225 350.75 -128.8825 350.75 -129.5625 350.75 C-150.07364212 323.75733697 -152.48287678 289.47733236 -153.5625 256.75 C-153.60265228 255.54674576 -153.64280457 254.34349152 -153.68417358 253.10377502 C-154.44572846 229.58804967 -154.722735 206.09289236 -154.69287109 182.56542969 C-154.6871659 178.02745422 -154.69057737 173.48953733 -154.69631004 168.95156384 C-154.71537415 151.14269755 -154.62266637 133.34529055 -154.109375 115.54296875 C-154.0794515 114.49060846 -154.0794515 114.49060846 -154.04892349 113.41698837 C-152.97308266 76.63710216 -151.60720996 36.57811408 -125.5625 7.75 C-124.88703125 6.98171875 -124.2115625 6.2134375 -123.515625 5.421875 C-93.15173582 -27.15835645 -33.56834059 -26.4449618 0 0 Z " fill="#BA4444" transform="translate(2421.5625,896.25)"/>
<path d="M0 0 C8.59429947 -0.00035553 17.1885588 -0.01204476 25.78284556 -0.02593619 C34.19607194 -0.03903776 42.60928041 -0.04437592 51.02251691 -0.04373711 C55.9948061 -0.04348461 60.96704555 -0.0462022 65.93932426 -0.05691516 C70.57673354 -0.06665121 75.21404555 -0.06663806 79.85145843 -0.05939853 C81.53678107 -0.05836235 83.22211003 -0.06065718 84.90742195 -0.06675899 C113.66691742 -0.16408688 113.66691742 -0.16408688 122.3841275 5.18511021 C125.44176152 8.83454437 125.75505146 11.51717479 125.3841275 16.18511021 C124.1966275 18.95464146 124.1966275 18.95464146 122.3841275 21.99761021 C122.04091461 22.57744664 121.69770172 23.15728306 121.34408844 23.75469029 C115.580114 33.36010444 109.41027368 42.72697646 103.34115875 52.14067662 C100.58223294 56.43256843 97.85400842 60.74340185 95.1341275 65.06011021 C94.41313873 66.20358922 94.41313873 66.20358922 93.67758453 67.37016881 C92.72175906 68.88660711 91.76618966 70.40320685 90.81088531 71.91997349 C74.2205665 98.25894987 57.54510307 124.54818688 40.60165679 150.66167271 C36.54345788 156.92285098 32.52669747 163.21030956 28.5091275 169.49761021 C22.00514865 179.67335078 15.44567501 189.81139268 8.8528775 199.92973912 C2.06218076 210.35734159 -4.66678868 220.82343977 -11.3658725 231.31011021 C-17.18250047 240.41418824 -23.05550021 249.47909095 -28.97036469 258.51958287 C-33.56244482 265.54722147 -38.09925015 272.60877732 -42.6158725 279.68511021 C-47.74008373 287.71337151 -52.90142437 295.71515986 -58.1158725 303.68511021 C-64.10520481 312.84014196 -70.02048796 322.04058852 -75.91006196 331.26006138 C-80.98780351 339.20823685 -86.09369593 347.1372165 -91.23110688 355.04692662 C-92.7452771 357.38492077 -94.25108085 359.72818973 -95.7564975 362.07182896 C-114.31009113 390.88817251 -114.31009113 390.88817251 -121.6158725 399.18511021 C-122.2758725 399.18511021 -122.9358725 399.18511021 -123.6158725 399.18511021 C-123.6158725 399.84511021 -123.6158725 400.50511021 -123.6158725 401.18511021 C-124.2758725 401.18511021 -124.9358725 401.18511021 -125.6158725 401.18511021 C-125.6158725 401.84511021 -125.6158725 402.50511021 -125.6158725 403.18511021 C-129.20141593 406.09836425 -132.21417043 406.66433502 -136.686185 406.47026646 C-139.61550041 406.03739192 -141.37230305 405.09874298 -143.6158725 403.18511021 C-145.39700397 399.5632841 -145.87964697 396.59282857 -145.93472016 392.58037388 C-145.95457978 391.44677433 -145.9744394 390.31317479 -145.99490082 389.14522374 C-146.01224274 387.26811207 -146.01224274 387.26811207 -146.029935 385.35307896 C-146.0489397 383.99071421 -146.0686157 382.62835869 -146.08889496 381.26601231 C-146.14223684 377.45416618 -146.1814204 373.64228786 -146.21716797 369.83024037 C-146.24118617 367.34008986 -146.26841643 364.84999244 -146.29647553 362.35988438 C-147.20272017 280.825344 -146.73198083 199.27024788 -146.20970643 117.73431599 C-146.1837166 113.67019877 -146.15862637 109.60607656 -146.13378227 105.54195219 C-145.92049921 70.74902725 -145.66374205 35.96527231 -144.6158725 1.18511021 C-96.41247684 0.0577504 -48.21423808 -0.0029288 0 0 Z " fill="#BA4444" transform="translate(1751.615872502327,882.8148897886276)"/>
<path d="M0 0 C2.04130044 0.00028255 4.08260098 0.0001228 6.12390137 -0.0004425 C11.62916334 -0.00072781 17.13440325 0.00512568 22.63966012 0.01213145 C28.40651603 0.01840951 34.17337252 0.0189723 39.94023132 0.02015686 C50.84437956 0.02325709 61.7485177 0.03145277 72.6526615 0.04150635 C85.07352336 0.05270821 97.49438572 0.05818818 109.91525137 0.06320179 C135.4509121 0.07363654 160.98656388 0.09121054 186.5222168 0.11352539 C186.57530385 49.77072862 186.52235716 99.42403799 186.13337648 149.07984436 C186.09467984 154.05142284 186.05898951 159.0230168 186.02490234 163.99462891 C185.81437849 194.6429512 185.53689035 225.28946941 185.0764339 255.93516517 C185.04625414 257.96382934 185.01709847 259.99250585 184.98820686 262.02118874 C184.02488115 328.40482196 184.02488115 328.40482196 178.3972168 334.36352539 C174.97082763 335.25736604 172.77171143 334.79963811 169.54833984 333.37036133 C162.14574 328.77841242 157.57464911 319.86363337 153.0847168 312.67602539 C152.032394 311.01138611 150.98006009 309.34675372 149.92706299 307.68254089 C148.84134612 305.9648485 147.75852087 304.24535869 146.67602539 302.52563477 C143.28118415 297.13903855 139.83554274 291.78491813 136.3972168 286.42602539 C125.53888824 269.46608583 114.73305423 252.47336016 103.98999023 235.44018555 C102.00363203 232.291484 100.01554965 229.14387296 98.02734375 225.99633789 C97.0231522 224.40657154 96.01908337 222.81672766 95.01513672 221.22680664 C92.55439564 217.32986798 90.09244282 213.43370654 87.62768555 209.53930664 C80.19804654 197.79600599 72.82596698 186.01727157 65.4675293 174.22924805 C61.58182939 168.00569104 57.69201943 161.78470197 53.80297852 155.56323242 C51.12734402 151.2826407 48.45198019 147.00188635 45.7800293 142.71899414 C40.98748951 135.03890686 36.16592468 127.37783596 31.32519531 119.72802734 C27.91389104 114.33176872 24.52688803 108.92084402 21.15087891 103.50244141 C10.55869287 86.50951917 -0.16567645 69.61174557 -11.2121582 52.91040039 C-11.80764465 52.00938095 -12.4031311 51.10836151 -13.0166626 50.18003845 C-16.00034678 45.66675447 -18.98910971 41.15697712 -21.98657227 36.65283203 C-39.47057494 10.30727848 -39.47057494 10.30727848 -40.4777832 3.11352539 C-27.78384511 -1.31459255 -13.26421254 -0.0258782 0 0 Z " fill="#BA4444" transform="translate(2894.477783203125,752.886474609375)"/>
<path d="M0 0 C0.66 0.33 1.32 0.66 2 1 C2 1.66 2 2.32 2 3 C2.66 3 3.32 3 4 3 C5.96747229 5.3119351 7.80619209 7.63634065 9.625 10.0625 C10.48291138 11.19848633 10.48291138 11.19848633 11.3581543 12.35742188 C24.10720503 29.38583833 35.75715185 47.10256031 47.13330078 65.06640625 C49.93033684 69.46206219 52.7759188 73.82547044 55.625 78.1875 C61.25464566 86.82135289 66.79478402 95.5101951 72.3203125 104.2109375 C81.08376047 118.00779906 89.89514863 131.77441382 98.7890625 145.48754883 C106.28241737 157.05223792 113.68049795 168.67854952 121.10253906 180.2890625 C131.50844114 196.56558315 141.97006271 212.80352866 152.5 229 C154.66690095 232.33318112 156.83357194 235.66651151 159 239 C159.46905762 239.72155273 159.93811523 240.44310547 160.42138672 241.18652344 C177.08036053 266.82586591 193.48073174 292.6509815 209 319 C209.38091797 319.60666504 209.76183594 320.21333008 210.15429688 320.83837891 C211.17919633 322.5145713 212.09742884 324.25489108 213 326 C212.67 326.99 212.34 327.98 212 329 C200.0509316 333.77962736 185.37668066 332.13827792 172.72753906 332.11352539 C170.69623821 332.11324289 168.66493726 332.11340248 166.63363647 332.1139679 C161.15104181 332.11425342 155.66846926 332.10839634 150.18587971 332.10139394 C144.44437588 332.09511957 138.70287148 332.09455338 132.96136475 332.09336853 C122.10322395 332.09026722 111.24509328 332.08207007 100.38695693 332.07201904 C88.01932161 332.06082055 75.65168579 332.05533805 63.28404665 332.05032361 C37.85602549 332.03988641 12.42801332 332.0223103 -13 332 C-13.19811436 164.53674794 -13.19811436 164.53674794 -12.5625 109.125 C-12.55257648 108.2302169 -12.54265297 107.33543381 -12.53242874 106.41353607 C-12.32490135 87.71060359 -12.00967597 69.01057279 -11.58921623 50.31118393 C-11.54882483 48.51169649 -11.50928261 46.71218974 -11.47070503 44.91266251 C-10.7079639 9.81102411 -10.7079639 9.81102411 -7 0 C-4.30919898 -1.34540051 -2.86443593 -0.71610898 0 0 Z " fill="#BA4444" transform="translate(2888,1074)"/>
<path d="M0 0 C0.02332844 17.45415735 0.0409789 34.90830985 0.05181217 52.36247921 C0.05697525 60.46618609 0.06401816 68.56988331 0.07543945 76.67358398 C0.08538594 83.73422122 0.09185334 90.79485146 0.09408849 97.85549551 C0.09539566 101.59634458 0.09848189 105.33717362 0.10573006 109.07801628 C0.11374324 113.24725113 0.11399116 117.41645084 0.11352539 121.58569336 C0.11712067 122.83509705 0.12071594 124.08450073 0.12442017 125.37176514 C0.1230455 126.50063644 0.12167084 127.62950775 0.12025452 128.79258728 C0.12163721 130.27344771 0.12163721 130.27344771 0.12304783 131.78422451 C0 134 0 134 -1 135 C-3.90151027 135.10019829 -6.77929153 135.13438413 -9.68130493 135.12698364 C-11.06472865 135.12932363 -11.06472865 135.12932363 -12.47610033 135.13171089 C-15.59296946 135.13572611 -18.70979059 135.1325289 -21.82666016 135.12939453 C-24.05234302 135.13074862 -26.27802567 135.13252859 -28.50370789 135.13470459 C-34.57785602 135.13928593 -40.65198728 135.13748442 -46.72613573 135.1343255 C-53.10049517 135.1317961 -59.47485315 135.13414194 -65.84921265 135.13571167 C-77.27730595 135.13765265 -88.70538994 135.13453182 -100.13348167 135.12945233 C-110.42981194 135.1250164 -120.72613089 135.1257328 -131.02246094 135.13037109 C-143.00741437 135.13576766 -154.99235926 135.13768856 -166.97731435 135.13475883 C-173.3091041 135.13321442 -179.64088611 135.13295022 -185.97267532 135.13629532 C-211.66735975 135.14802248 -237.32588553 135.13030051 -263 134 C-264.8997067 133.92142104 -266.79941563 133.84289597 -268.6991272 133.76443481 C-289.08341495 132.91658505 -289.08341495 132.91658505 -293 129 C-293.31884766 126.21972656 -293.31884766 126.21972656 -293.4140625 122.640625 C-293.43351929 121.99369186 -293.45297607 121.34675873 -293.47302246 120.68022156 C-293.53413041 118.53694904 -293.58022649 116.393672 -293.625 114.25 C-293.66233229 112.73640294 -293.69993367 111.22281249 -293.73779297 109.70922852 C-294.2799432 86.8376631 -294.01264174 63.99502731 -293.5625 41.125 C-293.53316376 39.58064774 -293.53316376 39.58064774 -293.50323486 38.00509644 C-293.44495392 35.00590381 -293.38151322 32.00686398 -293.31640625 29.0078125 C-293.29968369 28.13569626 -293.28296112 27.26358002 -293.26573181 26.36503601 C-293.0780208 18.22869553 -292.5415026 10.11891761 -292 2 C-263.77014115 1.34361251 -235.54200445 0.77001631 -207.30596924 0.46757126 C-205.41318407 0.44728649 -203.52040252 0.42666164 -201.62762451 0.40571976 C-134.42264108 -0.33618997 -67.20792383 -0.09049768 0 0 Z " fill="#BA4444" transform="translate(3806,1138)"/>
<path d="M0 0 C6.24587031 0.00634692 12.49174136 0.00684614 18.73761439 0.00802541 C30.50878749 0.01110587 42.27995105 0.01927392 54.05111998 0.0293749 C63.45846362 0.03726835 72.86580592 0.04275382 82.27315211 0.0464623 C82.94626388 0.04673029 83.61937565 0.04699829 84.31288475 0.04727441 C90.17178615 0.04958855 96.0306876 0.05174074 101.88958907 0.05387712 C126.93240821 0.06321688 151.97520725 0.0831574 177.01802516 0.10139394 C177.01802516 43.33139394 177.01802516 86.56139394 177.01802516 131.10139394 C120.28926544 131.14169697 120.28926544 131.14169697 96.30708766 131.15022206 C90.82954857 131.15218497 85.3520095 131.15419936 79.87447047 131.15632558 C79.18821251 131.15658933 78.50195455 131.15685308 77.79490089 131.15712482 C66.8021548 131.16144129 55.80941409 131.16930637 44.81667116 131.17854673 C33.48473306 131.18799079 22.15279887 131.1933974 10.82085657 131.19548243 C4.47715281 131.19677168 -1.86653886 131.19974153 -8.2102387 131.20712399 C-35.81861417 131.23799801 -63.39025465 131.12810437 -90.98197484 130.10139394 C-92.08296765 130.06057258 -93.18396047 130.01975121 -94.3183167 129.97769284 C-97.01882376 129.87580721 -99.71922619 129.77239955 -102.41947484 129.66389394 C-103.14366738 129.63733944 -103.86785993 129.61078494 -104.6139977 129.58342576 C-108.46807299 129.38360698 -111.56290909 128.92090089 -114.98197484 127.10139394 C-118.65306432 118.9868249 -117.48117872 107.62976009 -117.66947484 98.78889394 C-117.68910283 97.96991628 -117.70873082 97.15093862 -117.7289536 96.30714345 C-119.3265956 27.65073316 -119.3265956 27.65073316 -112.98197484 6.10139394 C-106.50003816 -0.38054274 -90.78130001 1.45584646 -81.98197484 1.10139394 C-80.96375205 1.05938422 -79.94552926 1.01737451 -78.89645123 0.97409177 C-52.60067936 -0.0692493 -26.31247439 -0.03135653 0 0 Z " fill="#BA4444" transform="translate(3628.981974840164,881.8986060619354)"/>
</svg>
